<?xml version="1.0" encoding="UTF-8" standalone="no"?>
<!-- Created with Inkscape (http://www.inkscape.org/) -->

<svg
   width="58.208412mm"
   height="58.224937mm"
   viewBox="0 0 58.208412 58.224937"
   version="1.1"
   id="svg1"
   xml:space="preserve"
   xmlns:inkscape="http://www.inkscape.org/namespaces/inkscape"
   xmlns:sodipodi="http://sodipodi.sourceforge.net/DTD/sodipodi-0.dtd"
   xmlns="http://www.w3.org/2000/svg"
   xmlns:svg="http://www.w3.org/2000/svg"><sodipodi:namedview
     id="namedview1"
     pagecolor="#ffffff"
     bordercolor="#000000"
     borderopacity="0.25"
     inkscape:showpageshadow="2"
     inkscape:pageopacity="0.0"
     inkscape:pagecheckerboard="0"
     inkscape:deskcolor="#d1d1d1"
     inkscape:document-units="mm" /><defs
     id="defs1" /><g
     inkscape:label="Layer 1"
     inkscape:groupmode="layer"
     id="layer1"
     transform="translate(-232.15642,-116.71186)"><g
       id="g1"><path
         style="clip-rule:evenodd;fill:#000000;fill-rule:evenodd;stroke-width:0.264583;image-rendering:optimizeQuality;shape-rendering:geometricPrecision;text-rendering:geometricPrecision"
         fill="#05a1ff"
         d="m 236.12517,116.72839 c 6.61517,-0.0441 13.22975,0 19.84375,0.13229 2.02459,0.59055 3.3917,1.86936 4.10104,3.83646 0.17648,6.61458 0.17648,13.22916 0,19.84375 -0.68077,2.1799 -2.13598,3.54674 -4.36562,4.10104 -6.26182,0.17648 -12.5236,0.17648 -18.78542,0 -2.36905,-0.42836 -3.91245,-1.79546 -4.63021,-4.10104 -0.17639,-6.61459 -0.17639,-13.22917 0,-19.84375 0.79942,-1.81324 2.07825,-3.13616 3.83646,-3.96875 z"
         id="path2" /><path
         style="clip-rule:evenodd;fill:#000000;fill-rule:evenodd;stroke-width:0.264583;image-rendering:optimizeQuality;shape-rendering:geometricPrecision;text-rendering:geometricPrecision"
         fill="#07a1ff"
         d="m 266.28767,116.72839 c 6.61511,-0.0441 13.2297,0 19.84375,0.13229 1.9603,0.63722 3.3274,1.91603 4.10104,3.83646 0.17648,6.5264 0.17648,13.05277 0,19.57916 -0.56382,2.32781 -2.01903,3.78302 -4.36562,4.36563 -6.43811,0.17648 -12.87648,0.17648 -19.31459,0 -2.19657,-0.69665 -3.56367,-2.15186 -4.10104,-4.36563 -0.17647,-6.52639 -0.17647,-13.05276 0,-19.57916 0.79931,-1.81324 2.0783,-3.13616 3.83646,-3.96875 z"
         id="path3" /><path
         style="clip-rule:evenodd;fill-rule:evenodd;stroke-width:0.264583;image-rendering:optimizeQuality;shape-rendering:geometricPrecision;text-rendering:geometricPrecision"
         fill="#fdfeff"
         d="m 252.79392,128.89922 c -0.2635,3.74568 -0.35171,7.53806 -0.26458,11.37708 -4.14515,0 -8.29027,0 -12.43542,0 0.088,-3.9897 -2.6e-4,-7.78205 -0.26458,-11.37708 -0.94763,0.20259 -1.87368,0.20259 -2.77813,0 -0.48506,-1.27881 -0.97014,-2.55765 -1.45521,-3.83646 2.3622,-1.60083 4.87575,-2.96785 7.54063,-4.10104 1.93733,0.3433 3.8776,0.3433 5.82083,0 2.75318,1.11199 5.39909,2.43491 7.9375,3.96875 -0.45164,1.39809 -0.93662,2.80919 -1.45521,4.23333 -0.86942,-0.18708 -1.75138,-0.27529 -2.64583,-0.26458 z"
         id="path4" /><path
         style="clip-rule:evenodd;fill-rule:evenodd;stroke-width:0.264583;image-rendering:optimizeQuality;shape-rendering:geometricPrecision;text-rendering:geometricPrecision"
         fill="#fdfeff"
         d="m 269.46267,120.96172 c 4.49871,-0.0441 8.99663,3e-5 13.49375,0.13229 0.47255,0.20757 0.86942,0.51626 1.19063,0.92604 0.13176,0.78889 0.17594,1.58264 0.13229,2.38125 -5.37978,0 -10.75981,0 -16.13959,0 -0.29818,-1.47793 0.14288,-2.62445 1.32292,-3.43958 z"
         id="path5" /><path
         style="clip-rule:evenodd;fill:#000000;fill-rule:evenodd;stroke-width:0.264583;image-rendering:optimizeQuality;shape-rendering:geometricPrecision;text-rendering:geometricPrecision"
         fill="#24a7ff"
         d="m 248.56059,121.75547 c 0.57041,0.0984 0.57041,0.36296 0,0.79375 -1.69479,1.13305 -3.28229,1.00076 -4.7625,-0.39687 1.39073,0.1483 2.80186,0.1483 4.23333,0 0.24231,-0.0737 0.4187,-0.20596 0.52917,-0.39688 z"
         id="path6" /><path
         style="clip-rule:evenodd;fill:#000000;fill-rule:evenodd;stroke-width:0.264583;image-rendering:optimizeQuality;shape-rendering:geometricPrecision;text-rendering:geometricPrecision"
         fill="#69c0ff"
         d="m 269.72725,122.28464 c 1.68487,-0.0872 3.36074,9.8e-4 5.02709,0.26458 -0.83794,0.0882 -1.67561,0.1764 -2.51354,0.26458 -0.94615,-0.004 -1.78382,-0.18039 -2.51355,-0.52916 z"
         id="path7" /><path
         style="clip-rule:evenodd;fill:#000000;fill-rule:evenodd;stroke-width:0.264583;image-rendering:optimizeQuality;shape-rendering:geometricPrecision;text-rendering:geometricPrecision"
         fill="#31abff"
         d="m 279.25225,122.02005 c 0.63818,0.0514 0.90276,0.40413 0.79375,1.05834 -0.35269,0 -0.70564,0 -1.05833,0 -0.0177,-0.38595 0.0704,-0.73874 0.26458,-1.05834 z"
         id="path8" /><path
         style="clip-rule:evenodd;fill:#000000;fill-rule:evenodd;stroke-width:0.264583;image-rendering:optimizeQuality;shape-rendering:geometricPrecision;text-rendering:geometricPrecision"
         fill="#35acff"
         d="m 281.36892,122.02005 c 0.63818,0.0514 0.90276,0.40413 0.79375,1.05834 -0.35269,0 -0.70564,0 -1.05833,0 -0.0177,-0.38595 0.0704,-0.73874 0.26458,-1.05834 z"
         id="path9" /><path
         style="clip-rule:evenodd;fill-rule:evenodd;stroke-width:0.264583;image-rendering:optimizeQuality;shape-rendering:geometricPrecision;text-rendering:geometricPrecision"
         fill="#fbfdff"
         d="m 268.13975,124.93047 c 5.37978,0 10.75981,0 16.13959,0 0.0442,4.76332 0,9.52582 -0.13229,14.2875 -0.3646,0.69003 -0.93795,1.08691 -1.7198,1.19063 -4.14522,0.17647 -8.29019,0.17647 -12.43541,0 -0.68845,-0.23363 -1.2618,-0.63051 -1.71979,-1.19063 -0.1323,-4.76168 -0.17648,-9.52418 -0.1323,-14.2875 z"
         id="path10" /><path
         style="clip-rule:evenodd;fill:#000000;fill-rule:evenodd;stroke-width:0.264583;image-rendering:optimizeQuality;shape-rendering:geometricPrecision;text-rendering:geometricPrecision"
         fill="#36acff"
         d="m 275.2835,127.04714 c 4.09523,-0.006 6.0796,2.02229 5.95313,6.08541 -1.41288,3.59455 -3.92642,4.69699 -7.54063,3.3073 -3.0599,-2.7299 -3.14827,-5.55213 -0.26458,-8.46667 0.58552,-0.42762 1.20306,-0.73628 1.85208,-0.92604 z"
         id="path11" /><path
         style="clip-rule:evenodd;fill-rule:evenodd;stroke-width:0.264583;image-rendering:optimizeQuality;shape-rendering:geometricPrecision;text-rendering:geometricPrecision"
         fill="#f7fcff"
         d="m 275.2835,127.84089 c 3.6629,-0.0858 5.38269,1.67812 5.15938,5.29166 -1.29778,3.0202 -3.45863,3.85803 -6.48229,2.51355 -1.92961,-1.65391 -2.32648,-3.63829 -1.19063,-5.95313 0.66913,-0.89559 1.50707,-1.51294 2.51354,-1.85208 z"
         id="path12" /><path
         style="clip-rule:evenodd;fill:#000000;fill-rule:evenodd;stroke-width:0.264583;image-rendering:optimizeQuality;shape-rendering:geometricPrecision;text-rendering:geometricPrecision"
         fill="#18a3ff"
         d="m 273.43142,131.54505 c 0.62362,-0.0432 1.2409,9e-4 1.85208,0.1323 0.59981,0.60804 1.30546,1.00491 2.11667,1.19062 0.82815,-0.41243 1.71027,-0.67701 2.64583,-0.79375 -0.50244,3.0112 -2.26615,4.20182 -5.29166,3.57188 -1.25942,-0.62106 -1.96506,-1.63531 -2.11667,-3.04271 0.0759,-0.51417 0.34052,-0.86696 0.79375,-1.05834 z"
         id="path13" /><path
         style="clip-rule:evenodd;fill:#808080;fill-rule:evenodd;stroke-width:0.264583;image-rendering:optimizeQuality;shape-rendering:geometricPrecision;text-rendering:geometricPrecision"
         fill="#a3dcff"
         d="m 252.79392,128.89922 c 0,3.88057 0,7.7611 0,11.64167 -4.32152,0 -8.64306,0 -12.96458,0 0,-3.88057 0,-7.7611 0,-11.64167 0.26432,3.59503 0.35253,7.38738 0.26458,11.37708 4.14515,0 8.29027,0 12.43542,0 -0.0871,-3.83902 0.001,-7.6314 0.26458,-11.37708 z"
         id="path14" /><path
         style="clip-rule:evenodd;fill:#000000;fill-rule:evenodd;stroke-width:0.264583;image-rendering:optimizeQuality;shape-rendering:geometricPrecision;text-rendering:geometricPrecision"
         fill="#06a1ff"
         d="m 235.86059,146.89089 c 6.79153,-0.0442 13.58252,0 20.37291,0.13229 1.8714,0.54822 3.15013,1.73884 3.83646,3.57187 0.17648,6.70269 0.17648,13.40565 0,20.10834 -0.70882,2.29579 -2.25213,3.66262 -4.63021,4.10104 -6.1736,0.17648 -12.34723,0.17648 -18.52083,0 -2.30949,-0.63368 -3.85289,-2.08889 -4.63021,-4.36563 -0.17639,-6.52647 -0.17639,-13.05269 0,-19.57916 0.78624,-1.71106 1.97686,-3.03398 3.57188,-3.96875 z"
         id="path15" /><path
         style="clip-rule:evenodd;fill:#000000;fill-rule:evenodd;stroke-width:0.264583;image-rendering:optimizeQuality;shape-rendering:geometricPrecision;text-rendering:geometricPrecision"
         fill="#07a1ff"
         d="m 266.02309,146.89089 c 6.79159,-0.0442 13.58238,0 20.37291,0.13229 1.9775,0.56621 3.25623,1.8452 3.83646,3.83646 0.17648,6.52647 0.17648,13.05269 0,19.57916 -0.60113,2.45322 -2.14445,3.90843 -4.63021,4.36563 -6.26189,0.17648 -12.52352,0.17648 -18.78541,0 -2.34421,-0.58023 -3.79942,-2.03544 -4.36563,-4.36563 -0.17647,-6.52647 -0.17647,-13.05269 0,-19.57916 0.6059,-1.88304 1.79652,-3.20596 3.57188,-3.96875 z"
         id="path16" /><path
         style="clip-rule:evenodd;fill-rule:evenodd;stroke-width:0.264583;image-rendering:optimizeQuality;shape-rendering:geometricPrecision;text-rendering:geometricPrecision"
         fill="#f8fcff"
         d="m 271.84392,153.24089 c 3.88064,0 7.76102,0 11.64167,0 0.79163,5.01465 1.49727,10.04173 2.11666,15.08125 -6.08541,0 -12.17083,0 -18.25625,0 -0.32041,-4.61037 1.62005,-7.82955 5.82084,-9.65729 3.17367,-0.1323 6.34867,-0.17648 9.525,-0.1323 -0.11166,-1.15861 -0.28813,-2.30505 -0.52917,-3.43958 -3.43508,-0.26432 -6.87467,-0.35242 -10.31875,-0.26458 0,-0.52917 0,-1.05834 0,-1.5875 z"
         id="path17" /><path
         style="clip-rule:evenodd;fill-rule:evenodd;stroke-width:0.264583;image-rendering:optimizeQuality;shape-rendering:geometricPrecision;text-rendering:geometricPrecision"
         fill="#f8fcff"
         d="m 236.65434,166.20547 c -0.20878,0.0749 -0.38518,0.20717 -0.52917,0.39688 6.79098,0.17647 13.58194,0.17647 20.37292,0 -0.14394,-0.18971 -0.32041,-0.322 -0.52917,-0.39688 -3.16082,-1.79202 -6.29174,-3.64411 -9.39271,-5.55625 -0.17639,-0.52917 -0.17639,-1.05833 0,-1.5875 0.65823,-0.59346 1.36377,-1.12263 2.11667,-1.5875 0.0904,-1.76107 -0.74747,-2.51063 -2.51354,-2.24896 -0.60386,0.63421 -0.95663,1.38404 -1.05834,2.24896 -0.35276,0 -0.70556,0 -1.05833,0 -0.21783,-2.16376 0.75229,-3.39857 2.91042,-3.70417 2.86393,0.5252 3.70178,2.1127 2.51354,4.7625 -0.60735,0.41196 -1.18062,0.85302 -1.71979,1.32292 2.87594,1.77244 5.78636,3.49224 8.73125,5.15938 0.94165,0.60325 1.33853,1.44118 1.19062,2.51354 -7.60928,0.26326 -15.23809,0.35163 -22.88646,0.26458 -0.10776,-1.34726 0.42141,-2.36141 1.5875,-3.04271 2.77736,-1.52082 5.51138,-3.10832 8.20209,-4.7625 1.10106,-0.31062 1.45383,0.0421 1.05833,1.05834 -2.96905,1.78011 -5.96765,3.4999 -8.99583,5.15937 z"
         id="path18" /><path
         style="clip-rule:evenodd;fill:#000000;fill-rule:evenodd;stroke-width:0.264583;image-rendering:optimizeQuality;shape-rendering:geometricPrecision;text-rendering:geometricPrecision"
         fill="#1aa3ff"
         d="m 283.75017,166.73464 c -5.03502,0.17304 -9.974,-0.003 -14.81667,-0.52917 0.47255,-3.16309 2.23626,-5.23557 5.29167,-6.21771 2.90909,-0.13229 5.81951,-0.17647 8.73125,-0.13229 0.34158,2.28097 0.60616,4.57412 0.79375,6.87917 z"
         id="path19" /><path
         style="clip-rule:evenodd;fill-rule:evenodd;stroke-width:0.264583;image-rendering:optimizeQuality;shape-rendering:geometricPrecision;text-rendering:geometricPrecision"
         fill="#f4faff"
         d="m 272.90225,161.97214 c 1.4605,0.14393 1.81346,0.80539 1.05834,1.98437 -1.66635,0.13097 -2.0193,-0.53049 -1.05834,-1.98437 z"
         id="path20" /><path
         style="clip-rule:evenodd;fill-rule:evenodd;stroke-width:0.264583;image-rendering:optimizeQuality;shape-rendering:geometricPrecision;text-rendering:geometricPrecision"
         fill="#f3faff"
         d="m 275.81267,161.97214 c 1.37795,-0.0347 1.81901,0.58261 1.32292,1.85208 -1.77562,0.34078 -2.21642,-0.27649 -1.32292,-1.85208 z"
         id="path21" /><path
         style="clip-rule:evenodd;fill-rule:evenodd;stroke-width:0.264583;image-rendering:optimizeQuality;shape-rendering:geometricPrecision;text-rendering:geometricPrecision"
         fill="#f1f9ff"
         d="m 278.98767,161.97214 c 1.46579,0.007 1.90685,0.66886 1.32292,1.98437 -1.78726,0.20003 -2.22832,-0.46143 -1.32292,-1.98437 z"
         id="path22" /><path
         style="clip-rule:evenodd;fill-rule:evenodd;stroke-width:0.264583;image-rendering:optimizeQuality;shape-rendering:geometricPrecision;text-rendering:geometricPrecision"
         fill="#bee6ff"
         d="m 236.65434,166.20547 c 6.43818,0.35269 12.8764,0.35269 19.31458,0 0.20876,0.0749 0.38523,0.20717 0.52917,0.39688 -6.79098,0.17647 -13.58194,0.17647 -20.37292,0 0.14399,-0.18971 0.32039,-0.322 0.52917,-0.39688 z"
         id="path23" /><path
         style="clip-rule:evenodd;fill:#808080;fill-rule:evenodd;stroke-width:0.264583;image-rendering:optimizeQuality;shape-rendering:geometricPrecision;text-rendering:geometricPrecision"
         fill="#bce6ff"
         d="m 268.9335,166.20547 c 4.84267,0.52573 9.78165,0.70221 14.81667,0.52917 -4.8305,0.26432 -9.85758,0.35242 -15.08125,0.26458 -0.0627,-0.34158 0.0254,-0.60616 0.26458,-0.79375 z"
         id="path24" /></g></g></svg>
