<svg xmlns="http://www.w3.org/2000/svg" xml:space="preserve" viewBox="0 0 58.2 58.2"><g fill-rule="evenodd" clip-rule="evenodd" image-rendering="optimizeQuality" shape-rendering="geometricPrecision" text-rendering="geometricPrecision"><path d="m4 0 19.8.1c2 .6 3.4 2 4.1 3.9.2 6.6.2 13.2 0 19.8a5.7 5.7 0 0 1-4.4 4.1c-6.2.2-12.5.2-18.7 0-2.4-.4-4-1.8-4.7-4v-20A9.8 9.8 0 0 1 4 0zm30.1 0L54 .1c2 .7 3.3 2 4 3.9.3 6.5.3 13 0 19.6-.5 2.3-2 3.7-4.3 4.3-6.4.2-12.9.2-19.3 0a5.7 5.7 0 0 1-4.1-4.3c-.2-6.6-.2-13 0-19.6.8-1.8 2-3.2 3.8-4z"/><path fill="#fdfeff" d="M20.6 12.2c-.2 3.7-.3 7.5-.2 11.4H7.9c.1-4 0-7.8-.2-11.4-1 .2-1.9.2-2.8 0L3.4 8.4c2.4-1.6 5-3 7.6-4.2 2 .4 3.9.4 5.8 0 2.8 1.2 5.4 2.5 8 4l-1.5 4.3-2.7-.3zm16.7-8c4.5 0 9 0 13.5.2.5.2.9.5 1.2 1 .1.7.2 1.5.1 2.3H36c-.3-1.5.1-2.6 1.3-3.5z"/><path d="M16.4 5c.6.1.6.4 0 .8-1.7 1.2-3.3 1-4.8-.4 1.4.2 2.8.2 4.3 0 .2 0 .4-.2.5-.4zm21.2.6c1.7-.1 3.3 0 5 .2l-2.5.3c-1 0-1.8-.2-2.5-.5zm9.5-.3c.6 0 .9.4.8 1h-1c0-.3 0-.7.2-1zm2.1 0c.7 0 1 .4.8 1h-1c0-.3 0-.7.2-1z"/><path fill="#fbfdff" d="M36 8.2h16v14.3c-.4.7-1 1-1.7 1.2-4.2.2-8.3.2-12.5 0-.7-.2-1.2-.6-1.7-1.2L36 8.2z"/><path d="M43.1 10.3c4.1 0 6.1 2 6 6.1-1.4 3.6-4 4.7-7.6 3.3-3-2.7-3.1-5.5-.2-8.4a6 6 0 0 1 1.8-1z"/><path fill="#f7fcff" d="M43.1 11.1c3.7 0 5.4 1.7 5.2 5.3-1.3 3-3.5 3.9-6.5 2.5-2-1.6-2.3-3.6-1.2-6 .7-.8 1.5-1.4 2.5-1.8z"/><path d="M41.3 14.8c.6 0 1.2 0 1.8.2.6.6 1.3 1 2.1 1.2a7 7 0 0 1 2.7-.8c-.5 3-2.3 4.2-5.3 3.5-1.3-.6-2-1.6-2.1-3 0-.5.3-.9.8-1z"/><path fill="gray" d="M20.6 12.2v11.6h-13V12.2c.3 3.6.4 7.4.3 11.4h12.5c-.1-3.9 0-7.7.2-11.4z"/><path d="m3.7 30.2 20.4.1a6 6 0 0 1 3.8 3.6c.2 6.7.2 13.4 0 20a5.6 5.6 0 0 1-4.6 4.2c-6.2.2-12.4.2-18.5 0A6.8 6.8 0 0 1 0 53.7V34.1c.8-1.7 2-3 3.6-4zm30.2 0 20.3.1c2 .6 3.3 1.9 3.9 3.8.2 6.6.2 13.1 0 19.6-.6 2.5-2.2 4-4.7 4.4-6.2.2-12.5.2-18.7 0-2.4-.6-3.8-2-4.4-4.4-.2-6.5-.2-13 0-19.6a6.2 6.2 0 0 1 3.6-4z"/><path fill="#f8fcff" d="M39.7 36.5h11.6c.8 5 1.5 10 2.1 15.1H35.2c-.3-4.6 1.6-7.8 5.8-9.6 3.2-.2 6.4-.2 9.5-.2 0-1.1-.3-2.3-.5-3.4-3.4-.3-6.9-.4-10.3-.3v-1.6zm-35.2 13c-.2 0-.4.2-.5.4 6.8.2 13.6.2 20.3 0l-.5-.4-9.4-5.6c-.2-.5-.2-1 0-1.6l2.1-1.5c.1-1.8-.7-2.5-2.5-2.3-.6.6-1 1.4-1 2.3h-1c-.3-2.2.7-3.4 2.8-3.7 2.9.5 3.7 2 2.5 4.7l-1.7 1.3 8.7 5.2c1 .6 1.4 1.4 1.2 2.5-7.6.3-15.2.4-22.9.3a3 3 0 0 1 1.6-3l8.2-4.8c1.1-.3 1.5 0 1 1l-8.9 5.2z"/><path d="M51.6 50c-5 .2-10 0-14.8-.5a7.2 7.2 0 0 1 5.3-6.2c2.9-.2 5.8-.2 8.7-.2l.8 7z"/><path fill="#f4faff" d="M40.7 45.3c1.5.1 1.9.8 1.1 2-1.7 0-2-.6-1-2z"/><path fill="#f3faff" d="M43.7 45.3c1.3 0 1.8.5 1.3 1.8-1.8.4-2.2-.3-1.3-1.8z"/><path fill="#f1f9ff" d="M46.8 45.3c1.5 0 2 .6 1.4 2-1.8.1-2.3-.5-1.4-2z"/><path fill="#bee6ff" d="M4.5 49.5c6.4.3 12.9.3 19.3 0 .2 0 .4.2.5.4-6.7.2-13.5.2-20.3 0l.5-.4z"/><path fill="gray" d="M36.8 49.5c4.8.5 9.8.7 14.8.5-4.8.3-9.9.4-15 .3-.2-.4 0-.6.2-.8z"/></g></svg>